<?xml version="1.0" standalone="no"?>
<!DOCTYPE svg PUBLIC "-//W3C//DTD SVG 20010904//EN"
 "http://www.w3.org/TR/2001/REC-SVG-20010904/DTD/svg10.dtd">
<svg  fill = "#006341" version="1.0" xmlns="http://www.w3.org/2000/svg"
 width="1132.000000pt" height="943.000000pt" viewBox="0 0 1132.000000 943.000000"
 preserveAspectRatio="xMidYMid meet">

<g transform="translate(0.000000,943.000000) scale(0.100000,-0.100000)"
fill="#006341" stroke="none">
<path d="M5295 9249 c-467 -35 -989 -168 -1435 -364 -1136 -500 -2024 -1465
-2427 -2640 -94 -275 -153 -523 -197 -825 -24 -166 -49 -476 -39 -493 8 -13
222 -7 301 9 106 21 226 71 437 179 287 149 447 193 651 181 56 -3 108 -8 117
-12 13 -5 8 -21 -31 -97 -25 -51 -65 -135 -88 -187 l-42 -95 -54 3 c-82 5
-210 -16 -306 -50 -48 -16 -177 -76 -287 -133 -293 -151 -403 -185 -597 -185
l-100 0 7 -100 c4 -55 10 -123 14 -152 l6 -53 55 -7 c30 -4 91 -3 136 2 131
14 223 51 452 181 193 110 325 156 469 166 53 3 93 2 92 -3 0 -5 -17 -83 -38
-174 l-37 -165 -66 -7 c-125 -12 -250 -62 -423 -168 -200 -123 -308 -161 -466
-168 l-116 -4 18 -82 c10 -44 29 -121 42 -171 l24 -90 62 -3 c108 -5 205 33
388 151 175 114 285 159 422 173 l72 7 -3 -154 -3 -154 -70 -6 c-98 -9 -183
-47 -343 -152 -168 -110 -239 -144 -340 -159 -42 -6 -78 -12 -80 -13 -3 -2 74
-193 112 -279 27 -58 27 -58 63 -53 58 10 131 51 233 132 167 133 271 178 396
173 l68 -3 17 -108 c10 -59 20 -114 22 -121 4 -10 -13 -15 -65 -21 -123 -12
-183 -43 -343 -179 -94 -79 -172 -126 -212 -126 l-23 0 21 -42 c31 -62 159
-267 170 -274 11 -6 51 25 179 140 94 84 213 153 283 162 25 4 49 9 55 13 7 4
1 39 -17 101 -16 52 -32 109 -35 126 l-7 31 83 7 c211 16 441 111 612 250 l43
36 5 93 c8 151 72 283 246 511 51 66 129 168 173 226 105 138 159 246 166 333
7 87 -18 235 -74 427 -65 226 -83 324 -90 500 -5 133 -3 171 16 265 61 319
229 618 455 812 75 64 100 69 56 11 -125 -166 -226 -350 -283 -514 -56 -161
-72 -258 -72 -434 1 -178 15 -264 77 -470 72 -240 88 -303 103 -400 43 -278 1
-392 -275 -750 -187 -243 -249 -352 -277 -487 -31 -152 8 -317 138 -576 38
-75 69 -139 69 -141 0 -11 -164 -144 -239 -193 -265 -175 -595 -259 -686 -173
-12 11 -39 58 -59 104 l-37 83 -52 -9 c-85 -16 -160 -64 -286 -182 -64 -61
-117 -113 -119 -116 -2 -5 112 -151 190 -243 l23 -28 69 78 c112 127 206 198
286 218 23 5 29 -2 73 -80 26 -47 47 -87 47 -89 0 -2 -24 -15 -54 -30 -68 -33
-130 -88 -208 -183 l-61 -75 84 -85 c46 -46 105 -102 130 -124 l46 -39 26 39
c54 81 199 226 218 219 4 -2 32 -35 63 -75 l56 -72 -56 -53 c-56 -53 -144
-166 -144 -186 0 -22 297 -239 309 -226 4 5 13 32 19 59 21 87 99 229 209 382
210 293 267 394 298 537 17 76 17 161 -1 251 l-6 30 21 -25 c29 -35 80 -160
92 -228 22 -115 -9 -268 -82 -415 -18 -34 -82 -145 -144 -248 -119 -197 -165
-296 -191 -405 -12 -55 -13 -69 -2 -80 7 -7 63 -40 123 -73 l110 -61 8 48 c11
70 47 199 75 267 13 33 90 193 172 356 162 326 193 413 194 539 0 138 -57 275
-237 563 -191 304 -247 438 -255 611 -6 137 6 193 68 321 48 98 91 160 280
408 166 218 210 308 218 448 8 140 -11 229 -108 520 -104 308 -130 433 -130
622 0 151 21 281 65 414 67 199 178 384 319 528 79 80 190 164 202 152 3 -3
-21 -41 -54 -84 -234 -308 -326 -561 -327 -903 0 -224 9 -262 188 -761 81
-225 109 -459 72 -604 -24 -95 -97 -231 -189 -352 -48 -62 -123 -162 -168
-222 -135 -178 -188 -304 -188 -449 0 -158 61 -306 245 -593 135 -210 212
-353 246 -454 20 -59 24 -90 24 -200 0 -121 -2 -137 -33 -225 -18 -52 -73
-171 -122 -265 -232 -438 -271 -529 -296 -699 -12 -81 -13 -101 -2 -108 20
-12 264 -108 277 -108 7 0 11 26 11 73 1 170 53 320 250 712 86 171 166 341
178 379 36 110 46 204 33 292 -21 141 -77 255 -272 555 -167 257 -223 370
-254 521 -20 94 -19 170 4 260 34 133 94 235 255 437 271 340 322 500 260 806
-21 104 -48 179 -144 405 -139 326 -170 447 -170 664 0 205 35 361 119 542 79
166 191 316 323 431 76 66 104 81 120 65 9 -9 6 -20 -13 -44 -205 -274 -287
-485 -309 -796 -19 -266 19 -418 210 -847 157 -352 201 -552 166 -754 -31
-176 -88 -287 -272 -523 -184 -237 -230 -333 -241 -493 -11 -172 50 -325 257
-638 153 -234 198 -309 237 -402 85 -200 86 -374 7 -590 -15 -38 -86 -194
-160 -345 -190 -391 -248 -587 -230 -763 l7 -64 72 -17 c40 -9 110 -25 157
-35 l85 -18 -3 138 c-6 258 50 449 258 869 129 260 170 386 170 520 0 178 -63
320 -294 669 -225 338 -286 477 -286 649 0 160 58 290 223 500 159 203 210
296 243 450 29 137 71 156 235 107 186 -56 342 -56 529 0 164 49 201 32 231
-110 24 -115 88 -244 176 -360 38 -49 95 -124 126 -165 160 -208 202 -407 132
-617 -39 -116 -95 -215 -253 -453 -152 -228 -251 -414 -278 -520 -12 -48 -15
-93 -12 -175 6 -144 34 -226 182 -534 203 -422 255 -603 244 -856 l-5 -112
111 24 c61 13 131 29 156 36 l45 13 0 139 c-1 208 -24 280 -235 715 -181 375
-219 494 -206 652 14 173 77 309 287 630 217 330 272 458 273 633 0 153 -49
272 -181 445 -43 56 -106 139 -140 183 -71 93 -154 253 -178 342 -8 33 -18
105 -21 160 -11 182 34 355 176 675 170 385 200 485 207 700 6 164 -11 312
-53 458 -33 116 -129 306 -210 416 -62 84 -73 116 -40 116 21 0 119 -83 201
-172 128 -137 228 -308 283 -485 50 -160 57 -205 57 -393 -1 -252 -9 -282
-225 -800 -67 -161 -99 -288 -106 -420 -11 -199 42 -340 211 -560 191 -250
217 -286 251 -347 73 -129 100 -261 83 -397 -20 -158 -80 -287 -262 -566 -339
-517 -352 -653 -104 -1140 162 -318 185 -365 216 -444 44 -110 72 -229 78
-333 4 -58 10 -93 17 -93 6 1 70 24 141 53 l130 53 -2 79 c-3 138 -67 309
-228 600 -201 366 -250 515 -225 696 21 155 78 277 260 559 181 281 233 392
252 536 25 181 -27 323 -199 548 -54 70 -124 162 -156 205 -247 322 -263 550
-76 1051 136 365 154 453 146 710 -4 102 -13 204 -22 245 -48 215 -141 402
-308 618 -33 42 -58 80 -55 82 12 13 134 -83 219 -173 231 -240 358 -531 375
-857 12 -220 -18 -382 -131 -701 -71 -201 -89 -271 -105 -401 -21 -171 32
-316 193 -528 46 -60 114 -151 153 -202 158 -209 215 -336 222 -498 7 -183
-52 -340 -252 -665 -195 -316 -239 -420 -240 -570 0 -134 30 -220 190 -536
181 -358 203 -414 251 -636 l8 -38 120 68 120 67 -3 35 c-6 61 -59 205 -110
297 -27 48 -86 149 -131 223 -143 235 -191 362 -191 504 1 95 13 144 62 249
42 89 63 112 50 55 -4 -18 -7 -80 -7 -138 0 -84 5 -119 24 -175 33 -97 97
-209 203 -356 123 -170 180 -254 215 -319 35 -63 83 -192 83 -222 0 -15 4 -18
17 -14 19 8 218 150 273 195 l35 29 -48 70 c-26 38 -72 93 -103 122 l-55 52
57 74 c51 67 58 72 78 62 36 -19 136 -120 184 -185 l45 -62 76 69 c42 37 100
93 129 122 l52 54 -66 83 c-73 91 -146 154 -211 183 -24 10 -43 21 -43 24 0
18 94 174 104 174 7 0 42 -14 77 -31 49 -25 90 -58 180 -149 85 -86 118 -115
125 -105 5 7 53 66 107 132 l97 120 -87 86 c-160 155 -222 197 -322 215 l-53
10 -14 -35 c-42 -98 -63 -140 -82 -156 -75 -67 -316 -24 -553 100 -106 54
-287 182 -343 241 l-28 30 70 140 c151 303 182 491 110 669 -49 122 -106 208
-331 499 -83 107 -157 235 -182 316 -43 134 -31 312 34 535 16 54 45 154 65
223 52 178 69 283 69 440 -1 218 -43 399 -143 605 -46 97 -137 243 -207 334
-18 24 -31 46 -28 49 10 10 89 -54 165 -135 256 -271 404 -655 386 -1003 -8
-156 -27 -263 -87 -472 -62 -220 -79 -308 -79 -409 0 -134 37 -204 255 -484
72 -93 155 -205 184 -248 102 -151 154 -292 150 -402 l-3 -60 61 -50 c163
-134 382 -223 596 -241 43 -4 79 -10 81 -13 2 -3 -12 -60 -30 -125 -19 -65
-33 -121 -30 -123 2 -2 32 -11 65 -19 105 -24 185 -72 303 -182 40 -37 90 -81
111 -97 l39 -29 17 22 c29 40 171 279 171 289 0 6 -15 14 -34 17 -44 8 -132
67 -226 149 -104 92 -188 135 -292 149 -46 7 -84 12 -84 12 -1 1 8 55 21 121
l21 120 55 3 c125 8 223 -33 399 -167 119 -91 209 -140 256 -141 18 0 30 19
69 108 26 59 57 134 70 168 l23 60 -81 12 c-102 15 -175 49 -337 157 -175 116
-267 155 -372 155 l-48 0 -2 120 c-1 66 -2 135 -2 153 l-1 32 63 -2 c131 -6
243 -48 420 -161 196 -125 287 -162 398 -162 l63 0 10 38 c48 181 71 277 71
292 0 15 -13 18 -112 22 -147 6 -238 37 -407 135 -249 146 -389 202 -503 203
-20 0 -39 4 -42 9 -5 8 -62 254 -73 315 l-6 29 95 -6 c158 -10 277 -56 548
-211 191 -109 347 -153 497 -139 72 7 66 -7 83 172 15 157 25 141 -87 141
-203 0 -287 27 -613 191 -280 142 -363 169 -525 174 l-110 3 -55 124 c-31 67
-70 150 -88 182 -17 33 -30 62 -27 65 9 8 106 19 176 20 85 1 236 -25 324 -56
39 -13 178 -78 310 -143 302 -150 368 -171 564 -178 l144 -5 -6 139 c-19 439
-135 961 -312 1404 -54 137 -195 426 -272 560 -736 1278 -2071 2122 -3528
2230 -161 11 -558 11 -720 -1z m480 -494 c53 -126 106 -246 116 -266 l18 -35
278 -19 c153 -10 284 -21 292 -25 9 -5 -39 -53 -155 -156 -93 -82 -191 -170
-218 -195 l-48 -45 60 -160 c33 -87 75 -197 93 -244 17 -47 35 -88 39 -93 3
-4 38 20 76 54 198 175 469 302 764 358 162 30 180 33 180 23 0 -5 -29 -56
-65 -113 -80 -126 -208 -380 -258 -509 -20 -53 -37 -99 -37 -103 0 -4 33 15
73 42 153 104 306 172 490 216 105 26 257 44 257 31 0 -4 -40 -63 -89 -129
-125 -172 -239 -356 -327 -531 -82 -162 -98 -186 -123 -186 -9 0 -75 26 -146
59 -436 197 -891 294 -1380 294 -299 0 -621 -40 -862 -109 -224 -63 -387 -122
-555 -201 -132 -62 -132 -62 -203 84 -95 200 -266 473 -429 686 l-28 37 45 0
c67 0 246 -37 350 -72 120 -40 259 -108 354 -174 43 -29 79 -51 80 -50 5 5
-42 124 -95 242 -58 127 -137 274 -211 392 -28 45 -51 86 -51 91 0 18 271 -34
410 -79 193 -63 401 -181 538 -305 35 -32 65 -55 68 -53 4 5 194 496 194 503
0 1 -96 87 -212 191 -117 103 -213 193 -213 198 0 7 68 15 180 23 99 7 229 16
290 20 l109 8 93 215 c50 118 104 242 118 274 14 35 29 56 34 50 4 -5 52 -112
106 -239z m-3527 -1709 c198 -153 355 -407 413 -669 7 -32 15 -56 18 -55 3 2
48 25 99 51 231 119 479 161 718 122 87 -14 206 -46 232 -63 9 -6 -18 -32 -89
-86 -268 -206 -482 -424 -683 -696 -43 -58 -79 -106 -80 -107 0 -1 -37 8 -81
19 -104 26 -278 28 -390 4 -101 -22 -236 -73 -447 -169 -214 -97 -338 -137
-448 -144 -83 -5 -200 10 -200 26 0 4 10 16 21 27 12 10 63 66 114 124 365
415 573 788 656 1175 16 73 23 148 26 280 3 100 10 186 15 193 18 22 48 13
106 -32z m6943 22 c7 -13 9 -46 6 -87 -3 -36 -1 -120 4 -186 35 -443 262 -891
703 -1389 58 -66 106 -123 106 -127 0 -14 -36 -21 -126 -26 -131 -8 -242 23
-508 142 -257 114 -345 147 -456 171 -140 30 -344 20 -451 -21 -11 -4 -37 24
-95 102 -126 170 -220 277 -381 433 -126 123 -331 295 -391 329 -26 15 -6 27
90 55 291 84 595 50 877 -100 46 -24 85 -43 86 -42 1 2 9 39 19 83 57 244 208
485 406 641 61 49 93 55 111 22z m-3351 -248 c128 -21 290 -85 400 -159 133
-90 280 -288 280 -377 0 -30 -11 -30 -86 -2 -48 17 -82 21 -189 22 -112 1
-140 -2 -198 -22 -74 -26 -180 -92 -203 -127 -64 -98 -52 -535 15 -535 23 0
35 14 75 92 46 89 63 95 167 62 110 -35 200 -31 284 12 52 26 59 27 82 14 84
-48 103 -192 53 -407 -89 -378 -367 -738 -665 -859 -63 -25 -82 -28 -185 -29
-102 0 -124 3 -191 28 -226 83 -437 302 -579 600 -130 272 -160 603 -61 657
32 16 89 12 134 -11 69 -36 152 -37 268 -4 l99 29 71 -37 c38 -20 74 -37 79
-37 27 0 40 232 19 346 -16 92 -88 155 -229 205 -53 18 -87 23 -190 23 -107 1
-135 -2 -198 -23 -91 -31 -100 -24 -72 51 43 115 152 251 262 326 60 41 188
105 256 127 129 42 357 58 502 35z m-677 -679 c70 -27 134 -75 160 -119 31
-53 18 -63 -50 -39 -47 17 -82 21 -189 22 -127 0 -131 -1 -174 -29 -42 -28
-44 -28 -58 -10 -45 59 -50 125 -12 159 56 50 213 58 323 16z m1258 19 c20 -6
48 -21 63 -35 37 -34 37 -101 0 -145 -24 -28 -28 -29 -43 -16 -54 49 -205 61
-334 27 -37 -9 -69 -15 -72 -13 -3 3 -5 22 -5 42 0 25 7 43 23 58 29 27 114
69 163 81 54 12 162 13 205 1z"/>
<path d="M5431 7536 c-124 -95 -227 -179 -229 -186 -4 -10 6 -12 44 -6 162 23
240 28 424 28 131 0 246 -6 320 -16 134 -18 140 -19 140 -8 0 10 -443 351
-463 356 -7 2 -113 -73 -236 -168z"/>
<path d="M5493 5391 c-71 -33 -59 -51 56 -90 111 -37 142 -37 235 0 28 12 61
25 74 30 35 14 26 35 -24 59 -35 18 -53 21 -82 15 -45 -10 -123 -10 -177 -1
-30 5 -51 2 -82 -13z"/>
<path d="M5326 5101 c-9 -14 115 -154 169 -191 56 -38 98 -50 174 -50 98 0
154 30 257 137 46 49 82 93 80 98 -4 12 -21 12 -202 -4 -133 -11 -306 -5 -433
15 -24 4 -41 2 -45 -5z"/>
</g>
</svg>
